<svg xmlns="http://www.w3.org/2000/svg" width="1000" height="983" viewBox="0 0 1000 983" role="img" aria-label="STARLINK Courier and Cargo Service">
<rect width="1000" height="983" fill="#fcc906"></rect>
<path fill="#27adc6" fill-rule="evenodd" d="M505 225L555 225L555 226L579 227L579 228L585 228L585 229L599 230L599 231L603 231L607 233L614 233L617 235L622 235L625 237L642 240L647 243L654 244L656 246L665 248L667 250L671 250L673 252L676 252L677 254L683 255L689 259L692 259L692 260L695 260L696 262L701 263L703 266L710 268L711 270L735 282L737 285L740 285L746 291L750 292L753 296L761 300L768 307L770 307L773 311L775 311L776 314L778 314L790 326L792 326L794 330L797 331L797 333L815 350L817 355L826 364L826 366L829 367L829 370L833 373L833 375L835 376L835 378L837 379L837 381L840 383L845 393L847 394L849 400L853 404L857 414L859 415L859 418L861 419L868 433L869 439L873 445L874 451L876 453L876 457L878 459L879 466L883 474L883 479L884 479L884 482L886 485L886 491L888 494L889 507L891 511L893 532L894 532L894 562L893 562L893 553L892 553L893 548L891 549L891 545L889 542L888 529L887 529L885 518L884 518L884 515L881 509L881 504L879 502L878 495L874 487L873 481L862 459L859 449L856 447L853 439L851 438L850 434L845 428L844 423L840 420L840 418L836 414L833 407L827 401L826 397L816 388L813 382L809 380L809 378L803 373L803 371L801 371L799 367L794 362L792 362L788 356L785 355L785 353L783 353L779 348L777 348L774 344L772 344L769 340L767 340L758 331L756 331L755 329L752 329L750 326L748 326L746 323L739 320L734 315L712 304L711 302L703 299L702 297L697 296L682 288L676 287L670 283L667 283L666 281L660 281L658 279L654 279L654 278L648 277L646 275L643 275L637 272L623 270L617 267L611 267L611 266L597 264L597 263L589 263L589 262L574 261L574 260L567 260L567 259L541 259L541 258L499 259L499 260L489 260L489 261L481 261L481 262L475 262L475 263L460 264L460 265L453 266L453 267L445 267L443 269L436 270L436 271L425 272L423 274L407 278L403 281L395 282L391 285L388 285L384 288L381 288L377 291L367 294L361 297L360 299L355 300L354 302L350 303L349 305L341 308L340 310L334 312L333 314L328 316L326 319L317 323L315 326L312 326L305 333L303 333L299 338L297 338L290 345L288 345L277 356L275 356L275 358L269 364L267 364L267 366L264 367L263 370L260 371L260 373L255 377L255 379L252 380L252 382L249 383L247 388L237 398L237 400L232 405L231 409L226 413L223 420L219 423L217 429L215 430L215 433L213 434L211 440L207 444L207 447L205 448L202 454L202 457L196 467L192 480L189 484L189 488L185 495L182 510L180 512L180 516L179 516L178 523L176 526L176 533L175 533L174 542L173 542L172 554L171 556L169 556L169 533L170 533L170 524L171 524L171 519L172 519L172 510L173 510L173 504L175 501L176 489L178 487L178 483L180 480L180 475L182 472L183 465L185 463L185 459L187 457L189 448L192 444L195 434L198 430L198 427L204 415L206 414L211 402L215 398L216 394L218 393L219 389L225 382L228 375L232 372L234 367L236 367L238 363L243 359L243 357L246 355L248 350L251 349L252 346L255 345L256 342L267 332L267 330L269 330L287 312L289 312L293 307L298 305L301 301L306 299L312 293L316 292L317 290L325 286L330 281L333 281L335 278L341 276L342 274L350 271L354 267L359 266L360 264L364 262L370 261L371 259L377 258L392 250L399 249L401 247L414 244L415 242L438 237L441 235L465 231L465 230L472 230L472 229L485 228L485 227L497 227L497 226L505 226ZM702 337L705 338L703 341L702 341ZM693 340L695 340L695 343L693 343ZM684 343L686 343L686 346L684 346ZM675 346L677 346L677 348L675 348ZM665 349L668 349L668 351L666 352ZM657 351L659 352L658 355L656 354ZM436 422L570 422L578 426L578 447L577 448L572 448L571 446L571 434L570 434L569 429L446 429L445 428L445 429L440 430L440 433L439 433L439 455L437 459L423 460L423 461L419 461L415 463L409 463L406 465L397 465L397 464L367 465L366 472L365 474L363 474L361 480L359 481L357 488L355 492L353 493L352 497L340 509L336 509L334 507L333 498L315 498L312 501L312 518L307 519L305 522L292 525L291 529L289 530L287 530L288 528L282 528L280 524L280 511L281 511L282 506L284 506L285 504L289 503L291 500L299 497L300 495L306 492L332 492L335 487L334 476L336 472L339 471L344 466L358 459L361 459L364 457L370 457L370 458L382 458L382 457L391 458L393 457L395 458L397 456L397 449L398 449L399 441L417 432L418 430L422 429L424 426L430 423L436 423ZM676 454L741 455L743 457L742 461L767 463L767 464L775 466L784 474L786 478L786 485L790 492L790 498L792 501L792 507L793 507L793 511L795 515L795 523L796 523L795 550L794 550L794 553L789 555L788 557L789 559L792 559L794 561L794 575L792 578L780 580L772 585L767 585L767 586L760 586L748 580L708 581L707 583L705 583L702 587L698 589L688 589L688 588L682 588L681 586L670 585L670 584L646 579L643 577L639 577L637 575L629 574L632 572L644 572L644 573L651 573L651 574L675 575L676 573L671 569L661 569L661 568L645 567L645 566L637 566L637 565L626 565L622 563L602 562L602 561L596 561L592 559L576 558L578 553L581 555L588 555L588 554L607 554L607 553L658 552L662 550L662 545L659 543L590 540L590 538L594 534L596 534L596 532L599 530L601 532L612 532L612 531L622 531L622 530L638 529L638 528L651 528L651 527L659 526L661 524L661 520L657 518L624 519L624 520L615 520L613 518L622 508L636 508L640 506L657 504L661 500L660 496L631 498L633 492L637 489L638 485L645 486L645 485L651 485L654 483L658 483L660 481L660 476L659 474L652 474L652 475L644 475L638 478L637 475L630 473L626 469L631 466L639 465L643 462L651 461L653 459L657 459L657 458L667 456L667 455L676 455ZM703 482L702 483L687 483L685 485L685 498L686 498L687 503L691 505L702 507L704 508L704 510L706 510L706 509L711 509L712 507L712 488L711 488L710 483ZM722 482L719 484L720 505L721 505L722 511L725 511L725 512L771 512L771 511L784 511L786 509L785 496L783 493L782 483L780 482ZM707 524L706 524L706 530L709 531L709 525ZM549 544L552 547L551 548L552 551L550 550L551 547L549 548L550 547ZM720 555L716 557L716 560L718 562L734 562L736 560L735 557L733 556ZM383 578L385 580L381 580ZM464 580L467 580L467 581L464 582ZM740 642L742 643L741 645L740 645ZM861 659L864 659L862 663L861 663ZM358 674L360 676L358 676ZM386 674L387 676L385 676ZM153 748L167 749L172 754L171 760L163 760L162 758L160 758L160 756L157 756L157 755L154 756L154 760L153 760L154 775L159 776L162 772L170 771L172 773L172 779L169 782L166 782L163 784L152 784L152 783L146 782L142 778L142 755L146 750L153 749ZM189 748L202 748L211 753L212 776L211 776L211 779L205 783L188 784L188 783L183 782L179 777L179 754L183 750L189 749ZM274 748L287 752L287 755L289 756L288 763L283 768L283 772L285 773L288 782L285 784L279 784L275 780L272 772L267 771L267 781L263 784L257 783L255 780L256 751L258 749L274 749ZM302 748L307 749L309 753L309 775L308 775L309 781L307 784L298 783L297 775L296 775L297 773L297 765L296 765L297 751L300 751L299 749L302 749ZM424 748L435 748L435 749L440 750L444 754L444 758L441 760L435 760L431 755L428 755L427 761L434 768L436 768L439 765L446 765L448 767L448 772L447 772L448 781L446 784L439 784L439 783L419 784L419 783L415 783L409 778L409 771L413 767L417 766L417 763L415 761L415 753ZM485 748L499 749L504 752L504 755L505 755L504 760L497 761L496 759L494 759L493 756L489 755L486 761L487 775L489 777L492 777L496 771L501 771L505 774L504 780L502 782L499 782L496 784L484 784L476 780L475 769L474 769L475 755L479 750L485 749ZM556 748L577 749L583 753L584 763L578 769L580 774L583 777L582 784L575 784L571 780L570 775L568 774L567 771L565 771L563 774L562 783L556 784L552 781L552 752ZM602 748L617 749L620 752L622 752L622 755L624 756L623 759L620 761L616 761L612 759L610 755L606 755L604 757L604 775L606 777L610 777L612 775L612 772L608 768L609 765L621 764L624 768L624 778L623 780L619 781L616 784L598 783L592 777L593 753ZM643 748L654 748L663 753L664 776L661 781L655 784L638 783L634 781L631 777L630 761L631 761L632 753L637 749L643 749ZM701 748L711 748L711 749L714 749L720 752L721 754L721 757L718 760L711 759L707 755L702 756L702 760L704 762L715 764L721 769L720 780L718 780L717 782L713 784L697 784L690 778L691 773L699 773L703 777L707 777L710 774L707 770L703 768L699 768L690 762L689 756L691 752L696 749L701 749ZM736 748L756 750L757 755L743 755L741 757L742 762L755 764L754 769L751 769L751 770L745 769L741 771L741 776L756 777L758 778L757 783L755 784L743 784L743 783L732 784L730 782L730 776L729 776L730 755L729 753L731 749L736 749ZM774 748L789 749L796 753L796 756L797 756L796 764L794 767L791 768L796 778L796 782L794 784L786 783L780 772L776 773L776 781L773 784L766 783L765 778L764 778L764 761L765 761L764 754L765 754L766 749L774 749ZM807 748L813 749L815 751L819 765L822 765L823 755L824 755L825 750L827 749L836 750L836 757L833 760L833 765L830 770L830 774L829 774L829 777L826 783L818 784L812 780L812 777L811 777L811 774L808 769L808 765L807 765L807 762L804 756L804 751ZM871 748L885 749L885 750L888 750L892 754L892 758L887 761L882 760L879 756L874 756L873 758L873 775L877 777L884 771L891 772L892 778L889 780L889 782L886 782L883 784L870 784L863 780L862 767L861 767L862 755L866 750L871 749ZM915 748L926 749L927 754L913 755L911 757L912 762L925 764L924 769L912 770L911 774L913 777L925 777L927 778L927 782L925 784L919 784L919 783L903 784L899 781L899 752L901 749L915 749ZM220 749L229 750L229 773L231 777L234 777L237 774L237 751L240 749L247 749L247 751L249 752L249 776L245 782L242 782L240 784L226 784L219 779L218 777L218 751ZM319 749L343 749L344 750L343 755L331 755L328 758L329 762L340 763L342 765L341 769L330 770L328 775L330 777L343 777L345 780L344 783L342 784L321 784L316 781L316 753L317 753L317 750ZM354 749L377 749L383 753L384 761L381 767L378 769L384 780L382 783L375 784L374 782L372 782L370 776L367 774L366 771L363 772L363 776L362 776L363 779L361 783L356 784L352 782L351 780L351 753ZM523 749L530 749L533 752L533 755L544 777L544 782L542 784L534 783L533 779L527 779L527 778L522 778L519 783L510 783L509 780L510 780L511 774L513 770L515 769L516 763ZM843 749L851 749L854 754L853 755L854 757L853 778L854 779L853 779L853 782L850 784L846 784L846 783L843 784L843 780L842 780L842 751ZM194 755L190 759L191 776L198 777L200 773L200 769L199 769L200 761L199 761L199 756ZM271 755L267 757L267 761L272 763L275 761L275 757ZM366 755L363 756L363 761L366 763L371 762L371 756ZM567 755L563 757L563 761L568 763L571 761L571 756ZM646 755L643 758L643 774L644 776L649 777L652 775L652 758L651 756ZM779 755L777 756L776 761L779 763L784 762L784 757L782 755ZM527 766L525 767L525 770L529 772L529 767ZM424 772L421 774L421 776L427 777L428 775Z"></path><path fill="#2e2452" fill-rule="evenodd" d="M0 0L1000 0L1000 2L0 2ZM723 327L731 328L731 330L729 331L753 332L755 334L755 338L749 347L739 352L738 354L730 358L727 358L725 360L722 360L718 363L714 363L714 364L705 366L703 368L689 371L689 372L676 375L676 376L673 376L667 379L656 381L654 383L649 383L645 385L646 388L642 392L640 392L636 397L634 397L630 402L628 402L618 412L614 414L610 414L610 415L605 415L605 416L602 415L602 408L603 408L605 396L587 400L587 401L578 402L578 403L559 405L559 406L515 407L515 406L500 406L496 404L495 400L492 400L492 399L482 398L478 396L471 396L471 395L461 394L457 392L459 390L503 392L503 388L501 386L501 383L499 381L499 378L497 376L497 373L494 367L496 363L502 363L503 365L507 366L509 369L511 369L513 372L515 372L516 374L524 378L530 384L537 384L543 381L547 381L553 378L557 378L560 376L565 376L567 374L570 374L568 370L560 366L554 365L552 363L548 363L538 358L526 355L524 353L518 352L516 350L512 350L510 348L507 348L502 345L486 340L486 338L496 333L499 333L501 331L505 331L505 330L519 332L519 333L526 333L526 334L531 334L531 335L537 335L537 336L543 336L543 337L548 337L548 338L555 338L559 340L572 341L572 342L583 343L583 344L588 344L588 345L614 348L614 349L619 349L619 350L624 350L624 351L637 351L640 349L648 348L650 346L654 346L654 345L666 343L668 341L672 341L675 339L683 338L689 335L701 333L701 332L712 330L715 328L723 328ZM703 337L702 337L702 341L705 339ZM694 340L693 340L693 343L695 343L695 340ZM685 343L684 343L684 346L686 346L686 343ZM676 346L675 348L677 348ZM666 349L665 351L667 352L668 349ZM658 351L656 352L657 355L659 354ZM541 450L569 451L569 452L575 452L578 454L590 456L595 459L599 459L604 462L610 463L619 468L626 469L630 473L637 475L639 479L639 485L637 489L633 492L631 499L615 515L613 520L609 521L604 527L602 527L599 531L597 531L596 534L594 534L590 538L589 541L586 542L586 544L581 548L581 550L577 554L577 557L573 560L572 564L568 564L565 561L565 559L563 559L554 549L552 549L552 547L549 544L550 550L552 551L552 553L555 555L555 557L559 560L559 562L564 567L568 575L569 581L601 583L604 585L599 585L599 586L594 586L594 587L562 587L562 586L546 585L546 584L541 584L541 583L528 582L528 581L523 581L523 580L515 580L515 579L509 579L509 578L497 578L497 579L490 579L490 580L485 580L482 582L477 582L472 585L468 585L468 586L461 587L461 588L456 588L458 585L460 585L461 583L467 580L454 580L454 579L422 579L422 578L415 578L415 579L414 578L386 578L384 579L383 578L381 580L386 580L389 582L399 584L399 585L387 585L387 584L382 584L382 583L367 582L367 581L362 581L362 580L355 580L355 579L344 578L344 577L339 577L339 576L334 576L334 575L328 575L328 574L323 574L323 573L318 573L318 572L301 571L301 572L290 572L290 573L286 573L283 575L279 575L282 572L282 569L276 563L275 559L273 558L269 550L267 538L271 535L275 535L277 533L289 530L291 528L298 527L300 525L304 525L306 523L309 523L309 522L312 522L312 521L315 521L315 520L318 520L318 519L321 519L329 515L333 515L335 513L342 512L348 509L349 506L354 502L355 498L357 497L364 482L371 476L382 474L385 472L395 471L399 469L415 467L415 466L419 466L423 464L431 464L434 462L442 462L442 461L448 461L448 460L453 460L453 459L461 459L461 458L467 458L467 457L473 457L473 456L483 456L483 455L490 455L490 454L501 454L501 453L523 452L523 451L541 451ZM428 473L416 476L415 481L430 479L433 473ZM403 478L391 481L390 485L395 486L395 485L405 484L407 482L407 478ZM628 572L632 572L632 573L628 573ZM421 590L438 590L438 591L429 592L425 594L410 594L408 592L416 592L416 591L421 591ZM169 614L194 615L210 623L209 627L204 633L200 633L196 630L193 630L192 628L176 626L176 627L170 627L170 628L163 630L158 637L158 645L163 651L176 654L176 655L187 656L187 657L202 661L203 663L207 665L207 667L210 669L212 673L213 688L212 688L212 692L209 698L201 705L194 707L194 708L185 709L185 710L161 709L161 708L157 708L149 704L146 704L140 699L140 696L147 689L150 689L153 692L159 695L162 695L162 696L183 697L183 696L189 696L190 694L194 693L198 688L198 684L199 684L198 678L194 673L187 671L187 670L159 665L153 662L146 655L146 652L144 650L144 633L148 625L155 619L161 616L164 616L164 615L169 615ZM240 615L311 615L311 627L283 628L282 630L282 708L281 709L269 709L268 707L268 629L259 628L259 627L251 627L251 628L240 627L239 625ZM366 615L379 615L380 616L381 622L383 624L383 627L389 639L390 645L395 654L397 663L400 667L400 670L403 674L404 680L410 692L411 698L415 705L414 709L401 709L397 702L393 689L390 689L390 688L353 688L344 709L330 709L331 702L333 700L333 697L335 695L335 692L337 690L342 674L345 670L348 659L355 645L356 639L358 637L358 634L360 632L360 629L362 627L362 624L364 622ZM452 615L501 615L501 616L504 616L510 619L511 621L515 623L515 625L518 627L519 632L521 634L521 650L517 658L515 659L515 661L512 662L510 665L504 667L504 672L506 673L509 681L511 682L521 702L523 703L524 709L508 709L500 692L498 691L491 676L489 675L489 672L485 669L466 670L466 708L465 709L452 709L451 707L451 616ZM565 615L579 615L579 693L580 693L580 696L628 696L630 697L630 708L629 709L566 709L565 708L565 705L564 705L564 632L565 632L564 617ZM667 615L681 615L681 708L680 709L667 709ZM726 615L741 616L742 620L745 622L746 626L751 631L751 633L753 634L753 636L755 637L755 639L757 640L757 642L759 643L759 645L761 646L761 648L763 649L765 654L768 656L768 658L770 659L770 661L772 662L772 664L777 669L780 676L783 678L785 682L787 680L787 615L801 615L801 708L800 709L788 709L785 706L785 704L782 702L782 700L780 699L780 697L778 696L774 688L771 686L771 684L769 683L765 675L762 673L762 671L760 670L760 668L758 667L754 659L751 657L750 653L747 651L747 649L741 642L740 642L740 708L739 709L727 709L726 708ZM846 615L861 615L861 663L868 656L868 654L873 650L873 648L877 645L877 643L884 637L884 635L889 631L889 629L894 625L894 623L899 619L901 615L918 615L917 619L901 635L901 637L894 643L894 645L889 649L888 653L891 656L894 663L896 664L896 666L898 667L903 677L905 678L905 680L907 681L907 683L909 684L909 686L911 687L915 696L918 698L923 709L906 709L902 701L899 699L898 695L892 688L891 684L885 677L884 673L882 672L882 670L877 664L861 681L861 708L860 709L847 709L846 708ZM471 627L466 629L466 655L467 656L489 656L490 657L490 656L497 656L504 651L504 648L506 646L506 638L504 636L504 633L501 630L497 628L490 628L490 627L489 628L483 628L483 627L472 628ZM373 635L370 639L367 650L363 657L363 661L358 671L358 676L387 676L385 666L383 664L380 652L378 650L378 647L377 647L377 644L375 642Z"></path>
</svg>